<?xml version="1.0" encoding="UTF-8"?>
<svg version="1.1" xmlns="http://www.w3.org/2000/svg" width="512" height="512">
<path d="M0 0 C1.31145996 0.00563965 2.62291992 0.0112793 3.97412109 0.01708984 C31.70966428 0.36186398 60.55423319 7.94548494 83.3125 24.3125 C84.33472656 25.03953125 85.35695313 25.7665625 86.41015625 26.515625 C117.50596544 49.20842315 135.23386721 82.63547694 141.9921875 120.078125 C147.83402457 158.97035537 139.36197254 200.20576134 116.3125 232.3125 C112.87614623 236.85432346 109.16394823 241.12071761 105.3125 245.3125 C104.52359375 246.18390625 103.7346875 247.0553125 102.921875 247.953125 C78.84102129 273.30978553 42.75576598 287.71467212 8.05078125 288.61328125 C5.57559399 288.63270869 3.10023787 288.63626425 0.625 288.625 C-1.34218994 288.61654053 -1.34218994 288.61654053 -3.34912109 288.60791016 C-41.28596871 288.13632596 -77.15556731 273.5604505 -103.94433594 246.47509766 C-131.77779211 217.33351968 -143.62505762 178.08132557 -142.93359375 138.40625 C-141.81008771 102.99065653 -128.7057672 69.37342636 -104.6875 43.3125 C-103.81351563 42.35601562 -102.93953125 41.39953125 -102.0390625 40.4140625 C-75.8361386 12.98167589 -37.37993453 -0.17010762 0 0 Z M-10.6875 53.3125 C-14.32699439 57.86081388 -15.26543451 61.32730802 -15.17333984 67.0234375 C-15.17713654 67.77235764 -15.18093323 68.52127777 -15.18484497 69.29289246 C-15.19222626 71.75819413 -15.17088725 74.22230367 -15.1484375 76.6875 C-15.14604948 78.41658389 -15.14514851 80.1456704 -15.1456604 81.87475586 C-15.1425355 85.49951433 -15.12600663 89.12387647 -15.09912109 92.74853516 C-15.06534566 97.35665694 -15.05748722 101.96433975 -15.05901146 106.5725708 C-15.05846263 110.14691229 -15.04741092 113.72116095 -15.03300858 117.29547119 C-15.02671364 118.99203796 -15.02271913 120.68861509 -15.02122116 122.38519287 C-15.87596872 140.33965229 -15.87596872 140.33965229 -9.9375 156.3125 C-8.5428772 157.66887365 -7.1213925 158.99770932 -5.6875 160.3125 C-4.54953833 161.44667993 -3.41722584 162.58654203 -2.2890625 163.73046875 C1.21874815 167.2845078 4.76261028 170.80058281 8.3125 174.3125 C10.65517613 176.63820021 12.98401152 178.95997578 15.234375 181.375 C19.61796097 186.0208518 24.09676321 190.36743951 30.3125 192.3125 C35.21727596 192.37746392 38.58464735 190.77077759 42.6875 188.1875 C46.24012949 184.29652485 48.35174817 180.68130143 48.2890625 175.30078125 C46.84515889 167.13470418 40.14339272 161.84283951 33.87573242 157.06567383 C24.67202742 149.72614312 16.91839568 142.81958197 15.47900391 130.64208984 C14.69542923 121.63331507 15.07796665 112.57688271 15.51318359 103.55932617 C15.73729479 98.42972435 15.81143128 93.29608105 15.90200329 88.16269398 C15.9741873 84.17318816 16.06890811 80.18938311 16.24055481 76.20280457 C16.97388273 64.16761421 16.97388273 64.16761421 11.85810852 53.70903015 C7.14325117 49.61450521 3.90722329 48.95662463 -2.1484375 49.03515625 C-5.91210402 49.44626444 -7.90540187 50.7953636 -10.6875 53.3125 Z " fill="#000000" transform="translate(255.6875,47.6875)"/>
<path d="M0 0 C8.08226453 6.42404916 11.88047432 12.66329239 16.5703125 22.04296875 C33.7303125 22.04296875 50.8903125 22.04296875 68.5703125 22.04296875 C70.5503125 18.41296875 72.5303125 14.78296875 74.5703125 11.04296875 C81.59473515 1.1110012 91.63240218 -5.77628103 103.53125 -8.51953125 C118.23608513 -10.63642268 131.53381742 -8.52279829 144 0 C152.08226453 6.42404916 155.88047432 12.66329239 160.5703125 22.04296875 C177.7303125 22.04296875 194.8903125 22.04296875 212.5703125 22.04296875 C214.8803125 17.75296875 217.1903125 13.46296875 219.5703125 9.04296875 C227.53682204 -0.22952597 237.5689852 -6.3328767 249.5703125 -8.95703125 C266.52831283 -10.00086376 279.26261529 -7.50775559 292.53125 3.69921875 C297.24464901 8.06271478 300.80449327 13.24791893 303.5703125 19.04296875 C303.5703125 20.03296875 303.5703125 21.02296875 303.5703125 22.04296875 C304.76527344 22.01976562 305.96023438 21.9965625 307.19140625 21.97265625 C327.87494975 21.68357352 327.87494975 21.68357352 334.0078125 26.41796875 C337.9675697 30.4743054 338.87331417 33.25889981 338.9453125 38.91796875 C338.84394668 44.12563782 338.26979648 47.14877508 334.5703125 51.04296875 C327.77861725 56.50585406 321.01187688 56.1868809 312.6953125 56.10546875 C311.81617188 56.10095703 310.93703125 56.09644531 310.03125 56.09179688 C307.87757447 56.08009212 305.72393433 56.06215944 303.5703125 56.04296875 C303.46976562 56.76742187 303.36921875 57.491875 303.265625 58.23828125 C301.10593939 66.94982206 292.96257062 75.28726263 285.51953125 79.95703125 C272.94735931 87.00440791 260.34083554 89.16809437 246.0859375 86.35546875 C231.37462148 81.78200263 221.81013098 73.42430508 214.5703125 60.04296875 C213.9103125 58.72296875 213.2503125 57.40296875 212.5703125 56.04296875 C195.4103125 56.04296875 178.2503125 56.04296875 160.5703125 56.04296875 C158.5903125 59.67296875 156.6103125 63.30296875 154.5703125 67.04296875 C147.54588985 76.9749363 137.50822282 83.86221853 125.609375 86.60546875 C110.90453987 88.72236018 97.60680758 86.60873579 85.140625 78.0859375 C77.05836047 71.66188834 73.26015068 65.42264511 68.5703125 56.04296875 C51.4103125 56.04296875 34.2503125 56.04296875 16.5703125 56.04296875 C14.5903125 59.67296875 12.6103125 63.30296875 10.5703125 67.04296875 C3.54588985 76.9749363 -6.49177718 83.86221853 -18.390625 86.60546875 C-33.09546013 88.72236018 -46.39319242 86.60873579 -58.859375 78.0859375 C-66.50560283 72.00846462 -71.63637403 65.00205082 -75.4296875 56.04296875 C-76.22890625 56.06617188 -77.028125 56.089375 -77.8515625 56.11328125 C-99.06680887 56.46188858 -99.06680887 56.46188858 -106.4296875 50.04296875 C-110.56935665 45.69382236 -109.97646562 41.12654834 -109.83984375 35.40625 C-109.24382418 30.51888954 -108.28294813 29.07638669 -104.4296875 26.04296875 C-95.344885 21.07203908 -85.48488291 21.91586656 -75.4296875 22.04296875 C-75.10097656 21.36492187 -74.77226563 20.686875 -74.43359375 19.98828125 C-67.46622897 6.35565965 -57.96703333 -3.0986353 -43.1796875 -7.89453125 C-27.93717879 -11.4086543 -12.95313345 -8.85571368 0 0 Z " fill="#000000" transform="translate(141.4296875,376.95703125)"/>
</svg>
